<svg xmlns="http://www.w3.org/2000/svg" viewBox="0 0 20 20">
  <path id="path" d="M115.8,143.2a9.506,9.506,0,0,1,7.1-2.9,9.9,9.9,0,0,1,7.1,2.9,9.506,9.506,0,0,1,2.9,7.1,9.9,9.9,0,0,1-2.9,7.1,9.506,9.506,0,0,1-7.1,2.9,9.9,9.9,0,0,1-7.1-2.9,9.506,9.506,0,0,1-2.9-7.1A9.732,9.732,0,0,1,115.8,143.2Zm1.4,12.7a7.73,7.73,0,0,0,5.6,2.4,7.568,7.568,0,0,0,5.6-2.4,7.73,7.73,0,0,0,2.4-5.6,7.413,7.413,0,0,0-2.4-5.6,7.73,7.73,0,0,0-5.6-2.4,7.568,7.568,0,0,0-5.6,2.4,7.73,7.73,0,0,0-2.4,5.6A8.616,8.616,0,0,0,117.2,155.9Zm6.7-10.7v4h4v2h-4v4h-2v-4h-4v-2h4v-4Z" transform="translate(-112.9 -140.3)"/>
</svg>
