<?xml version="1.0" encoding="utf-8"?>
<!-- Generator: Adobe Illustrator 23.0.1, SVG Export Plug-In . SVG Version: 6.00 Build 0)  -->
<svg version="1.1" id="Layer_1" xmlns="http://www.w3.org/2000/svg" xmlns:xlink="http://www.w3.org/1999/xlink" x="0px" y="0px"
	 viewBox="0 0 22.7 16.3" style="enable-background:new 0 0 22.7 16.3;" xml:space="preserve">
<path transform="translate(-506.855 -707)" d="M517.8,723.1l-10.9-7.2l10.9-8.3V723.1z M508.6,715.9l8.2,5.4v-11.6L508.6,715.9z
	 M524.8,718.3c0.7-0.8,1.1-1.8,1.1-2.9c0-2.2-1.5-4.4-4.3-4.4v1c2.2,0,3.3,1.7,3.3,3.4c0,0.9-0.3,1.7-0.8,2.3c-0.6,0.7-1.4,1-2.4,1
	v1C522.9,719.6,524,719.2,524.8,718.3z M527.6,720.8c1.3-1.5,2-3.4,2-5.5c0-4.1-2.8-8.2-8-8.2v1c4.8,0,7,3.7,7,7.2
	c0,1.9-0.6,3.6-1.7,4.9c-1.3,1.4-3.1,2.2-5.3,2.2v1C524.1,723.3,526.1,722.4,527.6,720.8z"/>
</svg>
