<?xml version="1.0" encoding="utf-8"?>
<!-- Generator: Adobe Illustrator 23.0.1, SVG Export Plug-In . SVG Version: 6.00 Build 0)  -->
<svg version="1.1" id="Layer_1" xmlns="http://www.w3.org/2000/svg" xmlns:xlink="http://www.w3.org/1999/xlink" x="0px" y="0px"
	 viewBox="0 0 42.9 42.9" style="enable-background:new 0 0 42.9 42.9;" xml:space="preserve">
<path d="M21.4,42.8C9.6,42.8,0,33.2,0,21.4C0,9.6,9.6,0,21.4,0c11.8,0,21.4,9.6,21.4,21.4C42.8,33.2,33.2,42.8,21.4,42.8z M21.4,1.5
	c-11,0-19.9,8.9-19.9,19.9c0,11,8.9,19.9,19.9,19.9c11,0,19.9-8.9,19.9-19.9C41.3,10.4,32.4,1.5,21.4,1.5z M16.3,29.3h-1V13.8h1
	V29.3z M27.5,29.3h-1V13.8h1V29.3z"/>
</svg>
