<?xml version="1.0" encoding="utf-8"?>
<!-- Generator: Adobe Illustrator 23.0.1, SVG Export Plug-In . SVG Version: 6.00 Build 0)  -->
<svg version="1.1" id="Layer_1" xmlns="http://www.w3.org/2000/svg" xmlns:xlink="http://www.w3.org/1999/xlink" x="0px" y="0px"
	 viewBox="0 0 42.9 42.9" style="enable-background:new 0 0 42.9 42.9;" xml:space="preserve">
<path d="M21.4,43.4c-12.1,0-21.9-9.8-21.9-21.9c0-12.1,9.8-21.9,21.9-21.9c12.1,0,21.9,9.8,21.9,21.9C43.4,33.5,33.5,43.4,21.4,43.4
	z M21.4,0.5C9.9,0.5,0.5,9.9,0.5,21.4c0,11.5,9.4,20.9,20.9,20.9c11.5,0,20.9-9.4,20.9-20.9C42.4,9.9,33,0.5,21.4,0.5z M21.4,42.9
	C9.6,42.9,0,33.3,0,21.4S9.6,0,21.4,0s21.4,9.6,21.4,21.4S33.3,42.9,21.4,42.9z M21.4,1C10.2,1,1,10.2,1,21.4
	c0,11.3,9.2,20.4,20.4,20.4c11.3,0,20.4-9.2,20.4-20.4C41.9,10.2,32.7,1,21.4,1z M30.1,31.5v-21c0-0.8-0.7-1.5-1.5-1.5
	s-1.5,0.7-1.5,1.5v21c0,0.8,0.7,1.5,1.5,1.5S30.1,32.3,30.1,31.5z M16.1,31.5v-21c0-0.8-0.7-1.5-1.5-1.5s-1.5,0.7-1.5,1.5v21
	c0,0.8,0.7,1.5,1.5,1.5S16.1,32.3,16.1,31.5z"/>
</svg>
