<svg
        xmlns="http://www.w3.org/2000/svg"
        viewBox="0 0 20 20">
    <path d="M152.8,38.8a9.506,9.506,0,0,1,7.1-2.9,10.068,10.068,0,0,1,7.1,2.9,9.506,9.506,0,0,1,2.9,7.1A9.9,9.9,0,0,1,167,53a9.506,9.506,0,0,1-7.1,2.9,9.9,9.9,0,0,1-7.1-2.9,9.506,9.506,0,0,1-2.9-7.1A9.356,9.356,0,0,1,152.8,38.8Zm1.4,12.7a7.73,7.73,0,0,0,5.6,2.4,7.413,7.413,0,0,0,5.6-2.4,7.73,7.73,0,0,0,2.4-5.6,7.413,7.413,0,0,0-2.4-5.6,7.73,7.73,0,0,0-5.6-2.4,7.413,7.413,0,0,0-5.6,2.4,7.733,7.733,0,0,0,0,11.2Zm3.6-1.2v-9l6,4.5Z" transform="translate(-149.9 -35.9)"/>
</svg>