<?xml version="1.0" encoding="utf-8"?>
<!-- Generator: Adobe Illustrator 23.0.1, SVG Export Plug-In . SVG Version: 6.00 Build 0)  -->
<svg version="1.1" id="Layer_1" xmlns="http://www.w3.org/2000/svg" xmlns:xlink="http://www.w3.org/1999/xlink" x="0px" y="0px"
	 viewBox="0 0 42.9 42.9" style="enable-background:new 0 0 42.9 42.9;" xml:space="preserve">
<path d="M21.4,43.3c-12.1,0-21.9-9.8-21.9-21.9S9.3-0.5,21.4-0.5s21.9,9.8,21.9,21.9S33.5,43.3,21.4,43.3z M21.4,0.5
	C9.9,0.5,0.5,9.9,0.5,21.4c0,11.5,9.4,20.9,20.9,20.9c11.5,0,20.9-9.4,20.9-20.9C42.3,9.9,32.9,0.5,21.4,0.5z M21.4,42.8
	C9.6,42.8,0,33.2,0,21.4C0,9.6,9.6,0,21.4,0c11.8,0,21.4,9.6,21.4,21.4C42.8,33.2,33.2,42.8,21.4,42.8z M21.4,1
	C10.2,1,1,10.2,1,21.4s9.2,20.4,20.4,20.4s20.4-9.2,20.4-20.4S32.6,1,21.4,1z M17.2,29.3V13.8L28.1,21L17.2,29.3z M18.2,15.6v11.7
	l8.1-6.3L18.2,15.6z"/>
</svg>
