<?xml version="1.0" encoding="utf-8"?>
<!-- Generator: Adobe Illustrator 23.0.1, SVG Export Plug-In . SVG Version: 6.00 Build 0)  -->
<svg version="1.1" id="Layer_1" xmlns="http://www.w3.org/2000/svg" xmlns:xlink="http://www.w3.org/1999/xlink" x="0px" y="0px"
	 viewBox="0 0 16.5 12.4" style="enable-background:new 0 0 16.5 12.4;" xml:space="preserve">
<title>repeat</title>
<path d="M15.6,1.7L13,0v1.4h-0.1H1.4H1.3c0,0,0,0-0.1,0H0.4C0.2,1.4,0,1.6,0,1.8v4.5c0,0.2,0.2,0.4,0.4,0.4s0.4-0.3,0.4-0.5v-4h0.4
	h0.1h0.1h11.5H13v1.5L15.6,1.7z M16.1,5.7c-0.2,0-0.4,0.3-0.4,0.5v4H3.6V8.7l-2.6,2l2.6,1.7V11h12.5c0.2,0,0.4-0.3,0.4-0.5V6.1
	C16.5,5.9,16.3,5.7,16.1,5.7z"/>
</svg>
