<svg xmlns="http://www.w3.org/2000/svg" viewBox="0 0 16.5 12.58"><title>repeat_song</title><path d="M13.07.27V4l2.62-2Z" transform="translate(-0.1 -0.15)" fill="#fff"/><path d="M3.69,12.73V9L1.07,11Z" transform="translate(-0.1 -0.15)" fill="#fff"/><path d="M13.2,2.53H5.05a.39.39,0,0,1-.4-.4.4.4,0,0,1,.4-.4H13.2a.4.4,0,0,1,.4.4A.39.39,0,0,1,13.2,2.53Z" transform="translate(-0.1 -0.15)" fill="#fff"/><path d="M.5,7a.4.4,0,0,1-.4-.4V2.13a.4.4,0,0,1,.4-.4h.79a.4.4,0,0,1,0,.8H.9v4A.4.4,0,0,1,.5,7Z" transform="translate(-0.1 -0.15)" fill="#fff"/><path d="M3.15,2.24a.78.78,0,0,1-.56.33.43.43,0,0,1-.44-.45.46.46,0,0,1,.46-.45A.82.82,0,0,1,3.15,2a.85.85,0,0,1,.57-.32.43.43,0,0,1,.44.45.46.46,0,0,1-.47.45A.84.84,0,0,1,3.15,2.24ZM3,2.12c-.12-.11-.24-.27-.42-.27a.28.28,0,0,0-.27.27.25.25,0,0,0,.26.27A.64.64,0,0,0,3,2.12Zm.94,0a.25.25,0,0,0-.26-.27.64.64,0,0,0-.43.27c.12.11.24.27.42.27A.28.28,0,0,0,4,2.12Z" transform="translate(-0.1 -0.15)" fill="#fff"/><path d="M16.2,11.26H3.5a.4.4,0,0,1,0-.8H15.8v-4a.4.4,0,0,1,.8,0v4.43A.4.4,0,0,1,16.2,11.26Z" transform="translate(-0.1 -0.15)" fill="#fff"/><circle cx="3.07" cy="1.98" r="1.73" fill="none" stroke="#fff" stroke-miterlimit="10" stroke-width="0.5"/></svg>