<svg xmlns="http://www.w3.org/2000/svg" viewBox="0 0 16.5 12.43"><title>repeat</title><path d="M13.12.31V4l2.6-2Z" transform="translate(-0.1 -0.31)" fill="#fff"/><path d="M3.73,12.74V9L1.14,11Z" transform="translate(-0.1 -0.31)" fill="#fff"/><path d="M13,2.5H1.5c-.3,0-.6-.2-.6-.4s.3-.4.6-.4H13c.3,0,.6.2.6.4S13.3,2.5,13,2.5Z" transform="translate(-0.1 -0.31)" fill="#fff"/><path d="M.5,7a.43.43,0,0,1-.4-.4V2.1a.43.43,0,0,1,.4-.4h.8a.43.43,0,0,1,.4.4.43.43,0,0,1-.4.4H.9v4A.46.46,0,0,1,.5,7Z" transform="translate(-0.1 -0.31)" fill="#fff"/><path d="M16.2,11.3H3.5a.4.4,0,0,1,0-.8H15.8v-4a.46.46,0,0,1,.4-.5.43.43,0,0,1,.4.4v4.4A.46.46,0,0,1,16.2,11.3Z" transform="translate(-0.1 -0.31)" fill="#fff"/></svg>