<svg xmlns="http://www.w3.org/2000/svg" viewBox="0 0 20 20"><path d="M41.9,38.8A9.506,9.506,0,0,1,49,35.9a9.9,9.9,0,0,1,7.1,2.9A9.506,9.506,0,0,1,59,45.9,9.9,9.9,0,0,1,56.1,53,9.506,9.506,0,0,1,49,55.9,9.9,9.9,0,0,1,41.9,53,9.506,9.506,0,0,1,39,45.9,9.732,9.732,0,0,1,41.9,38.8Zm1.4,12.7a7.73,7.73,0,0,0,5.6,2.4,7.568,7.568,0,0,0,5.6-2.4,7.73,7.73,0,0,0,2.4-5.6,7.413,7.413,0,0,0-2.4-5.6,7.73,7.73,0,0,0-5.6-2.4,7.568,7.568,0,0,0-5.6,2.4,7.733,7.733,0,0,0,0,11.2ZM46,49.8v-8h2v8Zm3.9,0v-8h2v8Z" transform="translate(-39 -35.9)"/></svg>